<svg width="34" height="32" viewBox="0 0 34 32" fill="none" xmlns="http://www.w3.org/2000/svg">
<g clip-path="url(#clip0)">
<path d="M19.2955 31.9375H13.8401C12.9289 31.9375 12.1876 31.2412 12.1876 30.3853V18.8267H9.00478C8.09355 18.8267 7.35229 18.1301 7.35229 17.2744V12.3215C7.35229 11.4656 8.09355 10.7693 9.00478 10.7693H12.1876V8.28906C12.1876 5.82984 13.0097 3.73755 14.5647 2.23877C16.1268 0.733154 18.3097 -0.0625 20.8776 -0.0625L25.0382 -0.0561524C25.9479 -0.0546875 26.6878 0.641602 26.6878 1.49609V6.09473C26.6878 6.95069 25.9468 7.64697 25.0359 7.64697L22.2346 7.64795C21.3803 7.64795 21.1627 7.80884 21.1162 7.85816C21.0395 7.93994 20.9483 8.17114 20.9483 8.80957V10.769H24.8253C25.1172 10.769 25.4 10.8367 25.643 10.9641C26.1672 11.2393 26.4932 11.7595 26.4932 12.3218L26.4911 17.2747C26.4911 18.1301 25.7498 18.8264 24.8386 18.8264H20.9483V30.3853C20.9483 31.2412 20.2068 31.9375 19.2955 31.9375ZM14.1847 30.0615H18.9509V17.9868C18.9509 17.4153 19.446 16.9504 20.0542 16.9504H24.4939L24.4958 12.6453H20.054C19.4458 12.6453 18.9509 12.1804 18.9509 11.6089V8.80957C18.9509 8.07666 19.0302 7.24317 19.6191 6.6167C20.3308 5.85938 21.4523 5.77197 22.2341 5.77197L24.6907 5.771V1.81934L20.876 1.81348C16.7492 1.81348 14.1847 4.29492 14.1847 8.28906V11.6089C14.1847 12.1802 13.6899 12.6453 13.0817 12.6453H9.34942V16.9504H13.0817C13.6899 16.9504 14.1847 17.4153 14.1847 17.9868V30.0615ZM25.0343 1.81982H25.0346H25.0343Z" fill="white"/>
</g>
<defs>
<clipPath id="clip0">
<rect width="34" height="32" fill="white"/>
</clipPath>
</defs>
</svg>
