<svg width="20" height="21" viewBox="0 0 20 21" fill="none" xmlns="http://www.w3.org/2000/svg">
<path d="M1.90003 19.0117C2.05801 14.464 5.63102 10.8154 10.0006 10.8154C14.3701 10.8154 17.9424 14.464 18.1011 19.0117H1.90003ZM6.09905 6.08555C6.09905 3.82603 7.84939 1.98895 10.0006 1.98895C12.1518 1.98895 13.9021 3.82603 13.9021 6.08555C13.9021 8.3443 12.1518 10.1814 10.0006 10.1814C7.84939 10.1814 6.09905 8.3443 6.09905 6.08555ZM11.8402 10.3953C13.4075 9.65428 14.5023 8.00324 14.5023 6.08555C14.5023 3.47876 12.4832 1.35876 10.0006 1.35876C7.51792 1.35876 5.49814 3.47876 5.49814 6.08555C5.49814 8.00324 6.59366 9.65428 8.16018 10.3953C4.24094 11.2844 1.29395 14.9492 1.29395 19.3272C1.29395 19.5016 1.4283 19.6427 1.59366 19.6427H18.4067C18.5728 19.6427 18.7072 19.5016 18.7072 19.3272C18.7072 14.9492 15.7602 11.2844 11.8402 10.3953Z" fill="white"/>
</svg>
