<svg width="17" height="20" viewBox="0 0 17 20" fill="none" xmlns="http://www.w3.org/2000/svg">
<g clip-path="url(#clip0)">
<path d="M16.6458 4.16669H0.354178C0.158678 4.16669 0 4.35333 0 4.58333V17.0833C0 18.6917 1.11207 20 2.47918 20H14.5209C15.8879 20 17 18.6917 17 17.0833V4.58333C17 4.35333 16.8413 4.16669 16.6458 4.16669ZM16.2917 17.0833C16.2917 18.2325 15.4976 19.1666 14.5209 19.1666H2.47918C1.50238 19.1666 0.708355 18.2325 0.708355 17.0833V5.00001H16.2917V17.0833Z" fill="white"/>
<path d="M8.49999 0C6.54712 0 4.95831 1.86918 4.95831 4.16668V7.08336C4.95831 7.31336 5.11699 7.50004 5.31249 7.50004C5.50799 7.50004 5.66667 7.31336 5.66667 7.08336V4.16668C5.66667 2.32836 6.93742 0.833359 8.49999 0.833359C10.0626 0.833359 11.3333 2.32836 11.3333 4.16668V7.08336C11.3333 7.31336 11.492 7.50004 11.6875 7.50004C11.883 7.50004 12.0417 7.31336 12.0417 7.08336V4.16668C12.0417 1.86918 10.4529 0 8.49999 0Z" fill="white"/>
<path d="M5.3125 6.66666C4.7267 6.66666 4.25 7.22748 4.25 7.91666C4.25 8.60584 4.7267 9.16666 5.3125 9.16666C5.8983 9.16666 6.375 8.60584 6.375 7.91666C6.375 7.22748 5.8983 6.66666 5.3125 6.66666ZM5.3125 8.3333C5.1177 8.3333 4.95832 8.1458 4.95832 7.91662C4.95832 7.68744 5.1177 7.49994 5.3125 7.49994C5.5073 7.49994 5.66668 7.68744 5.66668 7.91662C5.66668 8.1458 5.5073 8.3333 5.3125 8.3333Z" fill="white"/>
<path d="M11.6875 6.66666C11.1017 6.66666 10.625 7.22748 10.625 7.91666C10.625 8.60584 11.1017 9.16666 11.6875 9.16666C12.2733 9.16666 12.75 8.60584 12.75 7.91666C12.75 7.22748 12.2733 6.66666 11.6875 6.66666ZM11.6875 8.3333C11.4927 8.3333 11.3333 8.1458 11.3333 7.91662C11.3333 7.68744 11.4927 7.49994 11.6875 7.49994C11.8823 7.49994 12.0417 7.68744 12.0417 7.91662C12.0417 8.1458 11.8823 8.3333 11.6875 8.3333Z" fill="white"/>
</g>
<defs>
<clipPath id="clip0">
<rect width="17" height="20" fill="white"/>
</clipPath>
</defs>
</svg>
