<svg width="26" height="26" viewBox="0 0 26 26" fill="none" xmlns="http://www.w3.org/2000/svg">
<path d="M17.3062 4.99688C19.8809 4.99688 21.973 7.09414 21.973 9.68398C21.973 11.0145 21.4195 12.2129 20.5359 13.066L13.2132 20.4579C13.0958 20.5764 12.9042 20.5763 12.7869 20.4578L5.33203 12.9289C4.52969 12.0859 4.03203 10.9434 4.03203 9.68398C4.03203 7.09414 6.11914 4.99688 8.69883 4.99688C10.3819 4.99688 11.8546 5.89135 12.6761 7.2359C12.8155 7.46406 13.1932 7.4634 13.3322 7.23501C14.1484 5.8941 15.6242 4.99688 17.3062 4.99688ZM17.3062 4.21484C15.7242 4.21484 14.263 4.89647 13.2486 6.03706C13.1177 6.18423 12.8823 6.18423 12.7514 6.03705C11.737 4.89647 10.2758 4.21484 8.69375 4.21484C5.69258 4.21484 3.25 6.66758 3.25 9.68398C3.25 11.1008 3.78828 12.4465 4.76836 13.4723L12.4465 21.2266L12.7869 21.5701C12.9043 21.6886 13.0957 21.6886 13.2131 21.5701L13.5535 21.2266L21.0844 13.6195C22.1508 12.5887 22.75 11.1871 22.75 9.68398C22.75 6.66758 20.3074 4.21484 17.3062 4.21484Z" fill="white"/>
</svg>
