<svg width="38" height="32" viewBox="0 0 38 32" fill="none" xmlns="http://www.w3.org/2000/svg">
<path d="M14.6147 31.2613C8.53157 31.2613 3.72366 30.1723 1.42343 28.274L1.37866 28.237L1.33806 28.1954C0.791648 27.6352 0.612568 26.9003 0.847263 26.1794L0.868675 26.1196C1.15342 25.3899 1.85111 24.8986 2.6072 24.8941C4.1633 24.8664 5.52475 24.6764 6.76023 24.3074C4.78952 23.3682 3.42056 21.7421 2.60608 19.3884C2.33218 18.6544 2.56854 17.8406 3.19977 17.3554C3.35549 17.2354 3.53151 17.1448 3.71782 17.0841C2.62277 15.7888 1.81385 14.3148 1.36087 12.7559L1.34668 12.7074L1.33695 12.6579C1.18318 11.8694 1.52715 11.0588 2.15755 10.7097C2.422 10.5542 2.70925 10.4735 2.99761 10.4667C2.68672 9.78054 2.46065 9.07617 2.32662 8.36752C1.95455 6.40371 2.26155 4.43506 3.2387 2.51627L3.46478 2.05296C3.6458 1.68225 3.99173 1.42181 4.39049 1.35542C4.78924 1.28932 5.19801 1.42438 5.4836 1.71701L5.89542 2.13958C9.14889 5.63466 12.0631 7.29301 17.1015 8.42764C17.3265 6.44588 18.1627 4.60374 19.5116 3.15396C21.1169 1.42894 23.2606 0.460994 25.5478 0.42794H25.5628C27.2315 0.42794 29.3015 1.40415 30.5534 2.09256C31.6273 1.7324 32.9212 1.17477 34.2637 0.585228C34.8919 0.283191 35.6663 0.421387 36.1602 0.927441C36.6443 1.42352 36.7786 2.12305 36.5217 2.80292C36.4241 3.08131 36.3134 3.35456 36.1902 3.62184C36.374 3.70817 36.5423 3.82528 36.6844 3.97089C37.114 4.41112 37.2931 5.10011 37.1404 5.72641L37.124 5.78596C36.6096 7.48477 35.6213 8.86844 34.3143 9.73694C34.0961 21.6477 25.3428 31.2613 14.6147 31.2613ZM3.47312 27.0542C5.64071 28.3108 9.7715 29.071 14.6147 29.071C19.2711 29.071 23.6652 27.0226 26.9874 23.303C30.3368 19.5529 32.1812 14.573 32.1812 9.28047V9.22092C32.1812 8.74165 32.4387 8.30426 32.8531 8.07916C33.6937 7.62297 34.3744 6.84594 34.8171 5.85235C34.3605 5.92615 33.8964 5.73837 33.6119 5.34687C33.2813 4.89182 33.2777 4.2772 33.6027 3.81816C33.7782 3.57026 33.9373 3.31239 34.0791 3.04569C32.9198 3.54462 31.8189 3.99197 30.8632 4.28917C30.5158 4.39687 30.1288 4.3547 29.8115 4.1732C28.1099 3.20184 26.5252 2.62113 25.5697 2.61828C22.044 2.67356 19.1774 5.76772 19.1774 9.51925C19.1774 9.90705 19.0094 10.2706 18.7172 10.5171C18.4246 10.7633 18.0442 10.8619 17.6727 10.7867C11.8632 9.61385 8.42062 7.8552 4.84069 4.16892C4.32764 5.42864 4.18749 6.69748 4.42469 7.95037C4.66522 9.21949 5.30507 10.4912 6.27527 11.6278C6.644 12.0592 6.69294 12.6764 6.39707 13.1634C6.10231 13.6486 5.54199 13.8754 5.00336 13.7275C4.58236 13.6118 4.19528 13.46 3.82822 13.2648C4.57596 14.9291 5.86205 16.4684 7.47878 17.6036C7.94733 17.9327 8.1431 18.5462 7.95512 19.0955C7.76686 19.6457 7.24103 19.9999 6.67264 19.9566C6.05337 19.9096 5.50473 19.7891 4.99975 19.5859C5.90627 21.4776 7.35476 22.5185 9.5863 22.9163C10.1177 23.0112 10.5315 23.4412 10.616 23.9862C10.7008 24.5313 10.4375 25.0716 9.96115 25.3306C8.05912 26.3638 5.98024 26.9183 3.47312 27.0542Z" fill="white"/>
</svg>
